<?xml version="1.0" encoding="UTF-8"?>
<svg width="127px" height="50px" viewBox="0 0 127 50" version="1.1" xmlns="http://www.w3.org/2000/svg" xmlns:xlink="http://www.w3.org/1999/xlink">
    <title>Combined Shape</title>
    <g id="Page-1" stroke="none" stroke-width="1" fill="none" fill-rule="evenodd">
        <g id="bynd" transform="translate(-84.000000, -265.000000)" fill="#6da7cd">
            <path d="M123.049,277.817 L131.486,298.218 L140.833,277.817 L147.078,277.817 L130.296,314.446 L124.055,314.446 L128.179,305.586 L116.755,277.817 L123.049,277.817 Z M99.851,276.228 C108.605,276.228 115.701,283.324 115.701,292.078 C115.701,300.832 108.605,307.929 99.851,307.929 C92.396,307.929 86.094,302.763 84.431,295.757 L84.431,295.757 L90.139,295.757 C91.322,298.892 94.157,301.366 97.412,302.151 L97.412,302.151 L97.421,302.153 C98.221,302.348 99.036,302.44 99.851,302.44 C105.574,302.44 110.213,297.801 110.213,292.078 C110.213,288.025 108.114,284.535 104.431,282.796 C102.419,281.845 100.119,281.533 97.926,281.927 C95.684,282.33 93.661,283.46 92.137,285.148 L92.137,285.148 L92.137,278.225 C93.001,277.745 93.915,277.344 94.852,277.033 C96.465,276.497 98.151,276.228 99.851,276.228 Z M210.435,265.719 L210.473,292.068 C210.473,300.8 203.395,307.879 194.663,307.879 C185.931,307.879 178.853,300.8 178.853,292.068 C178.853,283.336 185.931,276.258 194.663,276.258 C197.944,276.258 201.116,277.262 203.794,279.159 L203.794,279.159 L204.97,279.993 L204.97,265.719 L210.435,265.719 Z M161.136,276.811 C168.506,276.811 174.54,282.845 174.54,290.215 L174.54,290.215 L174.54,307.157 L168.81,307.157 L168.81,290.215 C168.81,285.971 165.375,282.529 161.136,282.529 C156.898,282.529 153.462,285.971 153.462,290.215 L153.462,290.215 L153.462,307.157 L147.732,307.157 L147.732,290.215 C147.732,285.122 150.648,280.477 155.197,278.208 C157.045,277.286 159.071,276.811 161.136,276.811 Z M194.663,281.732 C188.955,281.732 184.327,286.36 184.327,292.068 C184.327,297.776 188.955,302.404 194.663,302.404 C200.055,302.404 204.552,298.25 204.968,292.875 C204.989,292.606 204.999,292.337 204.999,292.068 C204.999,291.8 204.989,291.53 204.968,291.262 C204.552,285.887 200.055,281.732 194.663,281.732 Z M89.717,288.225 L89.717,293.924 L84.018,293.924 L84.018,288.225 L89.717,288.225 Z M89.717,280.723 L89.717,286.422 L84.018,286.422 L84.018,280.723 L89.717,280.723 Z M89.717,273.221 L89.717,278.92 L84.018,278.92 L84.018,273.221 L89.717,273.221 Z M89.717,265.719 L89.717,271.419 L84.018,271.419 L84.018,265.719 L89.717,265.719 Z" id="Combined-Shape"></path>
        </g>
    </g>
</svg>